<svg xmlns="http://www.w3.org/2000/svg" xmlns:xlink="http://www.w3.org/1999/xlink" viewBox="0 0 132.17 166.79">
  <defs>
    <style>
      .cls-1 {
        fill: none;
      }

      .cls-2 {
        clip-path: url(#clip-path);
      }

      .cls-3 {
        clip-path: url(#clip-path-2);
      }

      .cls-4 {
        fill: #fffffd;
      }

      .cls-12, .cls-13, .cls-14, .cls-4 {
        isolation: isolate;
      }

      .cls-5 {
        fill: #cd31fd;
      }

      .cls-6 {
        fill: #50008d;
      }

      .cls-7 {
        fill: #b513fd;
      }

      .cls-8 {
        fill: #7100c7;
      }

      .cls-9 {
        fill: #fff;
      }

      .cls-10 {
        clip-path: url(#clip-path-3);
      }

      .cls-11 {
        fill: #ff00fe;
      }

      .cls-12 {
        fill: #bd0080;
      }

      .cls-13 {
        fill: #ff00c8;
      }

      .cls-14 {
        fill: #e00097;
      }
    </style>
    <clipPath id="clip-path" transform="translate(0.01 0)">
      <rect class="cls-1" width="66.06" height="152.09"/>
    </clipPath>
    <clipPath id="clip-path-2" transform="translate(0.01 0)">
      <path class="cls-1" d="M0,48v56a20.81,20.81,0,0,0,10.08,17.83l45.24,27.23a20.8,20.8,0,0,0,21.47,0L122,121.88a20.81,20.81,0,0,0,10.08-17.83V48A20.81,20.81,0,0,0,122,30.21L76.79,3A20.8,20.8,0,0,0,55.32,3L10.08,30.21A20.81,20.81,0,0,0,0,48Z"/>
    </clipPath>
    <clipPath id="clip-path-3" transform="translate(0.01 0)">
      <rect class="cls-1" x="66.06" width="66.06" height="152.09"/>
    </clipPath>
  </defs>
  <g id="Layer_6" data-name="Layer 6">
    <g class="cls-2">
      <g class="cls-3">
        <path class="cls-4" d="M0,48v56a20.81,20.81,0,0,0,10.08,17.83l45.24,27.23a20.8,20.8,0,0,0,21.47,0L122,121.88a20.81,20.81,0,0,0,10.08-17.83V48A20.81,20.81,0,0,0,122,30.21L76.78,3A20.8,20.8,0,0,0,55.31,3L10.07,30.21A20.81,20.81,0,0,0,0,48Z" transform="translate(0.01 0)"/>
        <rect class="cls-5" y="33.06" width="132.11" height="88.98" rx="17.08"/>
        <polygon class="cls-6" points="66.08 90.8 132.12 115.68 66.07 166.79 0.01 115.66 66.08 90.8"/>
        <rect class="cls-5" x="32.94" y="9.61" width="66.2" height="66.61" rx="12.61" transform="translate(-10.99 59.27) rotate(-45)"/>
        <polyline class="cls-7" points="28.81 33.06 103.01 33.06 66.07 90.81 28.81 33.06"/>
        <polygon class="cls-8" points="28.81 33.06 66.08 90.8 0.01 115.66 28.81 33.06"/>
        <polygon class="cls-8" points="103.01 33.06 66.07 90.81 132.17 115.69 103.01 33.06"/>
      </g>
      <path class="cls-9" d="M58.91,34.51H70.38a1.5,1.5,0,0,0,0-3H58.91a1.5,1.5,0,0,0,0,3Z" transform="translate(0.01 0)"/>
      <path class="cls-9" d="M82.29,34.51l18.1,0H103a1.5,1.5,0,0,0,0-3l-18.1,0H82.29a1.5,1.5,0,0,0,0,3Z" transform="translate(0.01 0)"/>
      <path class="cls-9" d="M28.8,34.55l18.72,0h2.69a1.5,1.5,0,0,0,0-3l-18.72,0H28.8a1.5,1.5,0,0,0,0,3Z" transform="translate(0.01 0)"/>
      <path class="cls-9" d="M27.5,33.81,40.13,53.38l1.8,2.79c1,1.61,3.64.11,2.59-1.52L31.89,35.08l-1.8-2.78c-1-1.62-3.64-.12-2.59,1.51Z" transform="translate(0.01 0)"/>
      <path class="cls-9" d="M44.58,60.26l1.87,2.91.27.41a1.5,1.5,0,0,0,2.74-.36,1.49,1.49,0,0,0-.15-1.15l-1.88-2.91-.26-.41a1.59,1.59,0,0,0-.9-.69,1.53,1.53,0,0,0-1.15.15,1.48,1.48,0,0,0-.69.9,1.49,1.49,0,0,0,.15,1.15Z" transform="translate(0.01 0)"/>
      <path class="cls-9" d="M91.17,53a1.5,1.5,0,0,0,0-3,1.5,1.5,0,0,0,0,3Z" transform="translate(0.01 0)"/>
      <path class="cls-9" d="M94.17,49.64l.59-.94.09-.13A1.12,1.12,0,0,0,95,48a1.18,1.18,0,0,0,0-.59,1.14,1.14,0,0,0-.27-.51,1,1,0,0,0-.42-.39L94,46.37a1.55,1.55,0,0,0-.8,0l-.35.15a1.4,1.4,0,0,0-.54.54l-.6.93-.08.13a1.16,1.16,0,0,0-.18.56,1.11,1.11,0,0,0,0,.6,1.14,1.14,0,0,0,.27.51,1.31,1.31,0,0,0,.42.39l.36.15a1.55,1.55,0,0,0,.8,0l.36-.15a1.74,1.74,0,0,0,.54-.54Z" transform="translate(0.01 0)"/>
    </g>
  </g>
  <g id="Layer_10" data-name="Layer 10">
    <g class="cls-10">
      <g class="cls-3">
        <path class="cls-4" d="M0,48v56a20.81,20.81,0,0,0,10.08,17.83l45.24,27.23a20.8,20.8,0,0,0,21.47,0L122,121.88a20.81,20.81,0,0,0,10.08-17.83V48A20.81,20.81,0,0,0,122,30.21L76.78,3A20.8,20.8,0,0,0,55.31,3L10.07,30.21A20.81,20.81,0,0,0,0,48Z" transform="translate(0.01 0)"/>
        <rect class="cls-11" y="33.06" width="132.11" height="88.98" rx="17.08"/>
        <polygon class="cls-12" points="66.08 90.8 132.12 115.68 66.07 166.79 0.01 115.66 66.08 90.8"/>
        <rect class="cls-11" x="32.94" y="9.61" width="66.2" height="66.61" rx="12.61" transform="translate(-10.99 59.27) rotate(-45)"/>
        <polyline class="cls-13" points="28.81 33.06 103.01 33.06 66.07 90.81 28.81 33.06"/>
        <polygon class="cls-14" points="28.81 33.06 66.08 90.8 0.01 115.66 28.81 33.06"/>
        <polygon class="cls-14" points="103.01 33.06 66.07 90.81 132.17 115.69 103.01 33.06"/>
      </g>
      <path class="cls-9" d="M58.91,34.51H70.38a1.5,1.5,0,0,0,0-3H58.91a1.5,1.5,0,0,0,0,3Z" transform="translate(0.01 0)"/>
      <path class="cls-9" d="M82.29,34.51l18.1,0H103a1.5,1.5,0,0,0,0-3l-18.1,0H82.29a1.5,1.5,0,0,0,0,3Z" transform="translate(0.01 0)"/>
      <path class="cls-9" d="M28.8,34.55l18.72,0h2.69a1.5,1.5,0,0,0,0-3l-18.72,0H28.8a1.5,1.5,0,0,0,0,3Z" transform="translate(0.01 0)"/>
      <path class="cls-9" d="M27.5,33.81,40.13,53.38l1.8,2.79c1,1.61,3.64.11,2.59-1.52L31.89,35.08l-1.8-2.78c-1-1.62-3.64-.12-2.59,1.51Z" transform="translate(0.01 0)"/>
      <path class="cls-9" d="M44.58,60.26l1.87,2.91.27.41a1.5,1.5,0,0,0,2.74-.36,1.49,1.49,0,0,0-.15-1.15l-1.88-2.91-.26-.41a1.59,1.59,0,0,0-.9-.69,1.53,1.53,0,0,0-1.15.15,1.48,1.48,0,0,0-.69.9,1.49,1.49,0,0,0,.15,1.15Z" transform="translate(0.01 0)"/>
      <path class="cls-9" d="M91.17,53a1.5,1.5,0,0,0,0-3,1.5,1.5,0,0,0,0,3Z" transform="translate(0.01 0)"/>
      <path class="cls-9" d="M94.17,49.64l.59-.94.09-.13A1.12,1.12,0,0,0,95,48a1.18,1.18,0,0,0,0-.59,1.14,1.14,0,0,0-.27-.51,1,1,0,0,0-.42-.39L94,46.37a1.55,1.55,0,0,0-.8,0l-.35.15a1.4,1.4,0,0,0-.54.54l-.6.93-.08.13a1.16,1.16,0,0,0-.18.56,1.11,1.11,0,0,0,0,.6,1.14,1.14,0,0,0,.27.51,1.31,1.31,0,0,0,.42.39l.36.15a1.55,1.55,0,0,0,.8,0l.36-.15a1.74,1.74,0,0,0,.54-.54Z" transform="translate(0.01 0)"/>
    </g>
  </g>
</svg>
