<svg xmlns="http://www.w3.org/2000/svg" width="247.844" height="268.773" viewBox="0 0 247.844 268.773">
  <g id="LeaftBottomRightPink" transform="matrix(0.848, -0.53, 0.53, 0.848, -1294.123, 218.811)">
    <path id="Path_29" data-name="Path 29" d="M1074.725,568.244s5.143,19.906,43.712,24.192" transform="translate(109.928 16.046)" fill="none" stroke="#a84bf9" stroke-linecap="round" stroke-width="24"/>
    <path id="Path_31" data-name="Path 31" d="M1074.725,568.244s24.593,26.258,61.55,22.793" transform="translate(92.09 59.093)" fill="none" stroke="#a84bf9" stroke-linecap="round" stroke-width="24"/>
    <path id="Path_33" data-name="Path 33" d="M1074.725,568.244s5.92,7.983,50.319,9.7" transform="translate(109.928 113.834)" fill="none" stroke="#a84bf9" stroke-linecap="round" stroke-width="24"/>
    <path id="Path_36" data-name="Path 36" d="M1074.725,568.244s5.574,6.766,47.378,8.223" transform="translate(122.865 153.631)" fill="none" stroke="#a84bf9" stroke-linecap="round" stroke-width="24"/>
    <path id="Path_37" data-name="Path 37" d="M1074.725,568.244s4.109,3.383,34.929,4.111" transform="translate(153.64 194.394)" fill="none" stroke="#a84bf9" stroke-linecap="round" stroke-width="24"/>
    <path id="Path_30" data-name="Path 30" d="M1145.7,575.5s-9.428,11.238-43.712,9.524" transform="translate(130.997 23.275)" fill="none" stroke="#fd85ff" stroke-linecap="round" stroke-width="24"/>
    <path id="Path_32" data-name="Path 32" d="M1142.182,573.209s-5.906,13.533-40.19,11.819" transform="translate(130.997 66.924)" fill="none" stroke="#fd85ff" stroke-linecap="round" stroke-width="24"/>
    <path id="Path_34" data-name="Path 34" d="M1149.205,575.5s-10.184,19.05-47.213,16.144" transform="translate(137.604 99.83)" fill="none" stroke="#fd85ff" stroke-linecap="round" stroke-width="24"/>
    <path id="Path_35" data-name="Path 35" d="M1135.594,575.5s-7.248,9.525-33.6,8.072" transform="translate(147.599 146.371)" fill="none" stroke="#fd85ff" stroke-linecap="round" stroke-width="24"/>
    <path id="Path_38" data-name="Path 38" d="M1125.346,575.5s-5.037,4.763-23.354,4.036" transform="translate(165.925 187.134)" fill="none" stroke="#fd85ff" stroke-linecap="round" stroke-width="24"/>
    <path id="Path_27" data-name="Path 27" d="M1106.241,564.244s-31.713,115.708,57.425,221.131" transform="translate(127.605 20.046)" fill="none" stroke="#e636f9" stroke-linecap="round" stroke-width="20.7"/>
    <path id="Path_28" data-name="Path 28" d="M1114.557,546.142s-5.546,11.348-8.975,31.661" transform="translate(129.453 1.439)" fill="none" stroke="#fd85ff" stroke-linecap="round" stroke-width="26"/>
  </g>
</svg>
