<svg xmlns="http://www.w3.org/2000/svg" width="333.779" height="233.845" viewBox="0 0 333.779 233.845">
  <g id="LeafBottomLeftGreen" transform="matrix(0.259, 0.966, -0.966, 0.259, 514.549, -1270.444)">
    <path id="Path_29" data-name="Path 29" d="M1074.725,568.244s5.9,22.857,50.192,27.778" transform="translate(112.572 21.996)" fill="none" stroke="#1c94d9" stroke-linecap="round" stroke-width="28"/>
    <path id="Path_31" data-name="Path 31" d="M1074.725,568.244s8.314,21.536,70.674,26.173" transform="translate(92.09 71.426)" fill="none" stroke="#1c94d9" stroke-linecap="round" stroke-width="28"/>
    <path id="Path_33" data-name="Path 33" d="M1074.725,568.244s6.8,9.167,57.778,11.141" transform="translate(112.572 134.282)" fill="none" stroke="#1c94d9" stroke-linecap="round" stroke-width="28"/>
    <path id="Path_36" data-name="Path 36" d="M1074.725,568.244s6.4,7.769,54.4,9.442" transform="translate(127.427 179.979)" fill="none" stroke="#1c94d9" stroke-linecap="round" stroke-width="28"/>
    <path id="Path_37" data-name="Path 37" d="M1074.725,568.244s4.718,3.885,40.107,4.721" transform="translate(162.764 226.785)" fill="none" stroke="#1c94d9" stroke-linecap="round" stroke-width="28"/>
    <path id="Path_30" data-name="Path 30" d="M1152.184,575.5s-10.826,12.9-50.192,10.936" transform="translate(140.807 31.373)" fill="none" stroke="#1cd9c6" stroke-linecap="round" stroke-width="28"/>
    <path id="Path_32" data-name="Path 32" d="M1152.184,575.5s-10.826,12.9-50.192,10.936" transform="translate(140.807 79.197)" fill="none" stroke="#1cd9c6" stroke-linecap="round" stroke-width="28"/>
    <path id="Path_34" data-name="Path 34" d="M1156.2,575.5s-11.693,21.874-54.212,18.538" transform="translate(148.393 119.278)" fill="none" stroke="#1cd9c6" stroke-linecap="round" stroke-width="28"/>
    <path id="Path_35" data-name="Path 35" d="M1140.576,575.5s-8.322,10.937-38.584,9.269" transform="translate(159.871 172.718)" fill="none" stroke="#1cd9c6" stroke-linecap="round" stroke-width="28"/>
    <path id="Path_38" data-name="Path 38" d="M1128.808,575.5s-5.784,5.469-26.816,4.635" transform="translate(180.914 219.525)" fill="none" stroke="#1cd9c6" stroke-linecap="round" stroke-width="28"/>
    <path id="Path_27" data-name="Path 27" d="M1107.053,564.244s-36.414,132.862,65.939,253.913" transform="translate(136.73 25.996)" fill="none" stroke="#00b4ba" stroke-linecap="round" stroke-width="24"/>
    <path id="Path_28" data-name="Path 28" d="M1103.535,543.15s3.937,16.731,0,40.351" transform="translate(139.263 1)" fill="none" stroke="#1cd9c6" stroke-linecap="round" stroke-width="32"/>
  </g>
</svg>
