<svg xmlns="http://www.w3.org/2000/svg" width="466.504" height="260.531" viewBox="0 0 466.504 260.531">
  <g id="LeafCentreOrange" transform="translate(-391.311 34.72)">
    <g id="Group_13" data-name="Group 13" transform="translate(444.043 1522.508) rotate(-115)">
      <path id="Path_29" data-name="Path 29" d="M1074.725,568.244s4.7,17.363,39.943,21.1" transform="translate(122.821 28.673)" fill="none" stroke="#ff3f52" stroke-linecap="round" stroke-width="28"/>
      <path id="Path_31" data-name="Path 31" d="M1074.725,568.244s9.512,19.716,80.854,23.961" transform="translate(86.258 69.045)" fill="none" stroke="#ff3f52" stroke-linecap="round" stroke-width="28"/>
      <path id="Path_33" data-name="Path 33" d="M1074.725,568.244s6.8,9.167,57.778,11.141" transform="translate(115.928 129.023)" fill="none" stroke="#ff3f52" stroke-linecap="round" stroke-width="28"/>
      <path id="Path_36" data-name="Path 36" d="M1074.725,568.244s6.4,7.769,54.4,9.442" transform="translate(135.949 174.868)" fill="none" stroke="#ff3f52" stroke-linecap="round" stroke-width="28"/>
      <path id="Path_37" data-name="Path 37" d="M1074.725,568.244s4.718,3.885,40.107,4.721" transform="translate(156.057 221.001)" fill="none" stroke="#ff3f52" stroke-linecap="round" stroke-width="28"/>
      <path id="Path_74" data-name="Path 74" d="M1074.725,568.244s3.333,5.008,28.336,6.086" transform="translate(172.195 262.321)" fill="none" stroke="#ff3f52" stroke-linecap="round" stroke-width="28"/>
      <path id="Path_75" data-name="Path 75" d="M1074.725,568.244s.884,2.341,7.51,2.845" transform="translate(174.06 306.223)" fill="none" stroke="#ff3f52" stroke-linecap="round" stroke-width="28"/>
      <path id="Path_30" data-name="Path 30" d="M1139.863,575.5s-8.168,8.853-37.871,7.5" transform="translate(140.807 34.871)" fill="none" stroke="#ffd128" stroke-linecap="round" stroke-width="28"/>
      <path id="Path_32" data-name="Path 32" d="M1166.258,575.5s-20.081,24.981-69.453,21.1" transform="translate(151.215 64.684)" fill="none" stroke="#ffd128" stroke-linecap="round" stroke-width="28"/>
      <path id="Path_34" data-name="Path 34" d="M1158.019,580.14s-14.743,15.7-56.027,12.659" transform="translate(155.929 115.925)" fill="none" stroke="#ffd128" stroke-linecap="round" stroke-width="28"/>
      <path id="Path_35" data-name="Path 35" d="M1145.806,575.5s-9.45,10.937-43.814,9.269" transform="translate(168.792 166.987)" fill="none" stroke="#ffd128" stroke-linecap="round" stroke-width="28"/>
      <path id="Path_38" data-name="Path 38" d="M1128.808,575.5s-5.784,5.469-26.816,4.635" transform="translate(180.533 214.445)" fill="none" stroke="#ffd128" stroke-linecap="round" stroke-width="28"/>
      <path id="Path_73" data-name="Path 73" d="M1119.853,575.5s-3.852,5.209-17.861,4.415" transform="translate(182.34 256.161)" fill="none" stroke="#ffd128" stroke-linecap="round" stroke-width="28"/>
    </g>
    <path id="Path_71" data-name="Path 71" d="M845.8-9.9C789.985,3.141,675.834-19.789,596.053,52.17s-95.9,89.067-150.125,94.544" fill="none" stroke="#ffb617" stroke-linecap="round" stroke-width="20"/>
    <path id="Path_72" data-name="Path 72" d="M408.159,76.9c-8.228,23.643,0,38.128,0,38.128" transform="translate(330.196 -251.326) rotate(63)" fill="none" stroke="#ffd128" stroke-linecap="round" stroke-width="24"/>
  </g>
</svg>
